<?xml version="1.0" encoding="UTF-8"?>
<svg version="1.1" xmlns="http://www.w3.org/2000/svg" width="500" height="500">
<path d="M0 0 C1.45177194 0.5231578 2.90560636 1.04063209 4.36157227 1.55200195 C5.84785949 2.11053538 7.33275073 2.6727942 8.81640625 3.23828125 C9.64513748 3.55117096 10.47386871 3.86406067 11.32771301 4.18643188 C14.07405123 5.22477554 16.81832913 6.26844308 19.5625 7.3125 C21.53789094 8.06136434 23.513315 8.81014131 25.48876953 9.55883789 C43.90236242 16.54744203 62.27461338 23.64357893 80.64355469 30.74853516 C95.19703972 36.37750644 109.76024538 41.97989963 124.33642578 47.54983521 C131.73604048 50.37848816 139.13285642 53.2144487 146.5289917 56.05218506 C148.15014591 56.67401793 149.77143851 57.29549017 151.3928833 57.91656494 C155.61370317 59.5334162 159.83214314 61.15608173 164.04574585 62.79165649 C165.81298025 63.47598405 167.58283893 64.15352264 169.3527832 64.83081055 C170.36816162 65.22695557 171.38354004 65.62310059 172.4296875 66.03125 C173.29835449 66.36705078 174.16702148 66.70285156 175.06201172 67.04882812 C177 68 177 68 178 70 C176.8855249 70.46897705 175.7710498 70.9379541 174.62280273 71.42114258 C170.46482803 73.17091191 166.30698039 74.92098302 162.14916992 76.67114258 C160.35395688 77.42675805 158.55870996 78.18229305 156.76342773 78.93774414 C154.17422595 80.02729174 151.58514847 81.11713426 148.99609375 82.20703125 C148.20101913 82.54152786 147.40594452 82.87602448 146.58677673 83.22065735 C145.82651688 83.54076279 145.06625702 83.86086823 144.28295898 84.19067383 C143.55897919 84.4942984 142.83499939 84.79792297 142.08908081 85.11074829 C140.71707404 85.69476561 139.35049208 86.29172872 137.99026489 86.90267944 C135.13105276 88.18184621 133.17358746 89 130 89 C130 90.98 130 92.96 130 95 C130.61875 95.226875 131.2375 95.45375 131.875 95.6875 C134 97 134 97 135.3125 99.0625 C136.26177721 103.11850261 136.12255749 106.97687448 135 111 C134.23478027 111.58309937 134.23478027 111.58309937 133.45410156 112.17797852 C131.20711167 114.99350665 131.84424692 117.834253 132.15234375 121.23828125 C132.2080101 121.98000076 132.26367645 122.72172028 132.32102966 123.48591614 C133.22049784 134.75860117 134.60153893 145.99463175 135.91870117 157.22436523 C139.50103478 187.92831111 139.50103478 187.92831111 136.95776367 193.1328125 C134.75210425 195.91261408 132.57068288 197.81176492 129.01171875 198.23828125 C124.94929982 198.36800555 122.62833539 198.37432746 119.0625 196.25 C115.11486534 191.94348947 114.70756143 188.68075593 114.82678223 183.01382446 C115.13391742 177.6699643 115.76684108 172.3691753 116.41863251 167.05779076 C116.67739941 164.93515257 116.92594537 162.81154337 117.17144775 160.68733215 C117.86875063 154.65589127 118.57172374 148.62533171 119.31103516 142.59887695 C119.76484362 138.89361237 120.19666979 135.18634775 120.61423492 131.47683144 C120.77674911 130.07048642 120.94743342 128.66505984 121.12654877 127.26073265 C121.37558731 125.30158782 121.59422382 123.33865105 121.81152344 121.37573242 C122.01137848 119.70555305 122.01137848 119.70555305 122.215271 118.00163269 C121.94102281 114.17765119 120.53223058 112.79009319 118 110 C115.8523346 103.41382611 119.09712467 98.80575066 122 93 C121.4406778 93.22550537 120.88135559 93.45101074 120.30508423 93.68334961 C114.49964489 96.02318167 108.6922923 98.35821427 102.88378906 100.69042969 C100.71434554 101.56223783 98.5453981 102.43528146 96.37695312 103.30957031 C93.26561028 104.56377707 90.15252862 105.81357506 87.0390625 107.0625 C86.065065 107.45622803 85.0910675 107.84995605 84.08755493 108.25561523 C83.18677216 108.61598877 82.28598938 108.9763623 81.35791016 109.34765625 C80.56293121 109.66742432 79.76795227 109.98719238 78.94888306 110.31665039 C77 111 77 111 75 111 C75 129.15 75 147.3 75 166 C72.69 165.67 70.38 165.34 68 165 C45.57249143 163.78251722 23.3461173 165.83005238 1.453125 170.72949219 C-7.7743483 172.76286581 -15.57597538 171.45379211 -24.75 169.625 C-47.19870802 165.34855562 -69.18077665 163.46453074 -92 166 C-92.33 147.85 -92.66 129.7 -93 111 C-112.13374841 103.32656965 -131.28948014 95.71143818 -150.45996094 88.13031006 C-165.65390516 82.12138042 -180.84041582 76.09521498 -196 70 C-194.65528573 67.31057145 -193.45271869 67.21407166 -190.6628418 66.16259766 C-189.72753632 65.80606613 -188.79223083 65.44953461 -187.82858276 65.0821991 C-186.79589264 64.69671402 -185.76320251 64.31122894 -184.69921875 63.9140625 C-183.62189484 63.50541458 -182.54457092 63.09676666 -181.43460083 62.67573547 C-177.85458266 61.31919164 -174.27100663 59.97229846 -170.6875 58.625 C-168.17961294 57.67604042 -165.67198132 56.7264405 -163.16479492 55.77563477 C-159.28802786 54.30579794 -155.41114012 52.83629287 -151.53309631 51.36982727 C-138.9409428 46.60734844 -126.37465876 41.7785029 -113.8125 36.9375 C-111.6807841 36.11676157 -109.54902944 35.29612379 -107.41723633 34.47558594 C-103.13334074 32.82665337 -98.84957721 31.17737849 -94.56591797 29.52783203 C-84.28196035 25.56810028 -73.99614512 21.61319714 -63.71054077 17.65774536 C-57.39886013 15.23069374 -57.39886013 15.23069374 -51.08802795 12.80143738 C-49.10053714 12.03811039 -47.11156721 11.27862259 -45.12107849 10.52314758 C-39.72295381 8.46816159 -34.37435708 6.33094831 -29.05175781 4.08691406 C-27.89149078 3.60976959 -26.73122375 3.13262512 -25.53579712 2.64102173 C-23.30792422 1.72342706 -21.08941961 0.78261459 -18.88290405 -0.18521118 C-11.48532015 -3.19123427 -7.27877727 -3.15317677 0 0 Z M-15.83886719 4.6262207 C-16.78343277 4.9860907 -17.72799835 5.34596069 -18.70118713 5.71673584 C-20.23355263 6.31521332 -20.23355263 6.31521332 -21.796875 6.92578125 C-23.41667519 7.5470993 -23.41667519 7.5470993 -25.06919861 8.18096924 C-28.63259792 9.55016136 -32.19125992 10.93124791 -35.75 12.3125 C-38.24688917 13.27469745 -40.74401754 14.2362507 -43.24145508 15.19702148 C-49.62025912 17.65296503 -55.99460518 20.12030308 -62.36749268 22.59155273 C-65.76259406 23.9079496 -69.15826192 25.22287069 -72.55419922 26.53710938 C-80.58235788 29.64447902 -88.60959711 32.75418931 -96.63330078 35.87304688 C-114.29928571 42.7393071 -131.9891489 49.54281892 -149.6862793 56.32836914 C-160.48997112 60.47392978 -171.27509109 64.65406361 -182 69 C-179.38030412 71.61969588 -176.39797491 72.57051603 -173.00390625 73.87890625 C-172.27936249 74.16316971 -171.55481873 74.44743317 -170.80831909 74.74031067 C-168.39493806 75.68595935 -165.97876689 76.62425223 -163.5625 77.5625 C-161.00623523 78.56107643 -158.45060677 79.56127041 -155.89497375 80.5614624 C-154.09565643 81.26543886 -152.29607981 81.96875289 -150.4962616 82.67144775 C-143.68209394 85.33370637 -136.88169833 88.02941986 -130.0859375 90.73828125 C-128.12299359 91.51952047 -126.16002185 92.30068977 -124.19702148 93.08178711 C-121.32690657 94.2238865 -118.45726405 95.36709544 -115.58914185 96.51419067 C-112.91382383 97.58366689 -110.23645285 98.64784304 -107.55859375 99.7109375 C-106.76436005 100.03004593 -105.97012634 100.34915436 -105.15182495 100.67793274 C-101.45218426 102.14135211 -97.95947863 103.4067423 -94 104 C-93.67128906 103.49210937 -93.34257812 102.98421875 -93.00390625 102.4609375 C-82.5644026 87.35336311 -64.48747024 84.1889435 -47.5 81.0703125 C-11.89741458 74.95705717 37.52097877 73.51386732 68.84375 94.21875 C72.42870345 96.96018499 74.27231322 99.87274824 76 104 C80.98297052 103.37963738 85.36781772 101.85098179 89.99316406 99.98071289 C90.77111328 99.67166519 91.5490625 99.36261749 92.35058594 99.04420471 C94.90803558 98.02634568 97.46188572 96.99978516 100.015625 95.97265625 C101.795727 95.26105076 103.5759824 94.54982889 105.35638428 93.838974 C109.07997203 92.35069856 112.80181875 90.85817231 116.52246094 89.36254883 C121.2967352 87.44372371 126.07496282 85.53497829 130.854496 83.6292963 C134.52764734 82.1635896 138.19878568 80.6928966 141.8693161 79.22064018 C143.63103008 78.51464952 145.39334351 77.81015283 147.15625763 77.10716438 C149.61436088 76.12602268 152.0697066 75.13828288 154.52441406 74.14868164 C155.25585632 73.8582196 155.98729858 73.56775757 156.74090576 73.26849365 C159.62095551 72.10061983 161.77885345 71.22114655 164 69 C158.16989343 66.35344656 152.30256453 63.8843846 146.32421875 61.59375 C145.09219475 61.11847115 145.09219475 61.11847115 143.83528137 60.6335907 C141.12020192 59.58684484 138.4038636 58.5434084 135.6875 57.5 C133.73820713 56.74929725 131.7889902 55.99839729 129.83984375 55.24731445 C124.62842341 53.23985849 119.41588478 51.23532241 114.20306396 49.23150635 C109.97916766 47.60751283 105.75584418 45.98203277 101.53253174 44.35652161 C90.73315882 40.19998492 79.93257299 36.04660869 69.13140869 31.89472961 C57.41542831 27.3911387 45.70037299 22.88514352 33.98535156 18.37905884 C30.65300931 17.09731332 27.32064958 15.81561326 23.98828125 14.53393555 C22.95242889 14.13537857 21.91657654 13.73682159 20.84933472 13.32618713 C18.86190053 12.56210395 16.87406073 11.79907476 14.88577271 11.03721619 C10.85604365 9.49205633 6.83059328 7.94104756 2.82763672 6.32763672 C1.67666504 5.86760254 0.52569336 5.40756836 -0.66015625 4.93359375 C-2.06406616 4.36016235 -2.06406616 4.36016235 -3.49633789 3.77514648 C-8.01904102 2.37489466 -11.48280639 2.94509823 -15.83886719 4.6262207 Z " fill="#F9F9F9" transform="translate(259,20)"/>
<path d="M0 0 C3.27862874 1.54369321 6.6521652 2.79029152 10.04295349 4.06404114 C12.88533287 5.1320747 15.71485936 6.22926197 18.54278564 7.33496094 C24.9154522 9.82401523 31.29147778 12.30436573 37.66802979 14.78344727 C39.34326973 15.43513634 39.34326973 15.43513634 41.05235291 16.09999084 C53.25971949 20.84696868 65.48169983 25.55577664 77.70709229 30.25610352 C78.78056915 30.66890564 79.85404602 31.08170776 80.96005249 31.50701904 C102.37854051 39.74152895 123.81892901 47.91831928 145.26959229 56.06860352 C145.26959229 57.05860352 145.26959229 58.04860352 145.26959229 59.06860352 C131.08486501 65.14299946 116.77569362 70.85209927 102.39459229 76.44360352 C100.30725946 77.25716641 98.22001942 78.0709674 96.13287354 78.88500977 C93.20963173 80.02513883 90.28627128 81.16494888 87.3621521 82.30282593 C86.50290131 82.63722687 85.64365051 82.97162781 84.75836182 83.31616211 C83.96689758 83.62301941 83.17543335 83.92987671 82.35998535 84.24603271 C80.67631151 84.90855928 79.00554546 85.60383814 77.3394165 86.30932617 C75.26959229 87.06860352 75.26959229 87.06860352 72.26959229 87.06860352 C71.58896729 86.03735352 70.90834229 85.00610352 70.20709229 83.94360352 C62.42663431 72.57040465 44.65012353 68.56900453 31.83209229 65.81860352 C31.13092285 65.66762207 30.42975342 65.51664062 29.70733643 65.36108398 C15.46793548 62.53708205 1.24990125 61.68904208 -13.23040771 61.75610352 C-14.46532455 61.75883774 -14.46532455 61.75883774 -15.72518921 61.7616272 C-41.0939375 61.85564791 -77.02068498 62.37615679 -96.73040771 81.06860352 C-97.61204023 82.09560671 -98.48251298 83.13225477 -99.34393311 84.17626953 C-100.13146973 85.13073975 -100.91900635 86.08520996 -101.73040771 87.06860352 C-114.66613954 82.29058446 -127.50708635 77.27631439 -140.34246826 72.23583984 C-143.81680717 70.87171994 -147.29211364 69.51008678 -150.76751709 68.14868164 C-152.9960904 67.27447973 -155.22460805 66.40013591 -157.45306396 65.52563477 C-158.48230484 65.12246536 -159.51154572 64.71929596 -160.57197571 64.3039093 C-165.66161355 62.30341963 -170.71917507 60.25841895 -175.73040771 58.06860352 C-173.57343209 55.91162789 -172.18205642 55.32861401 -169.35906982 54.26293945 C-167.98016823 53.7377195 -167.98016823 53.7377195 -166.57341003 53.20188904 C-165.56174271 52.82274857 -164.55007538 52.44360809 -163.50775146 52.05297852 C-162.44528702 51.6497084 -161.38282257 51.24643829 -160.28816223 50.83094788 C-157.97136789 49.95216885 -155.6536518 49.07581705 -153.33514404 48.2015686 C-149.62457528 46.80226226 -145.91626939 45.39707268 -142.20892334 43.98925781 C-141.58079554 43.75073813 -140.95266773 43.51221846 -140.30550575 43.26647091 C-139.02211489 42.77908923 -137.73873702 42.29167336 -136.45537186 41.80422401 C-134.48988524 41.05791332 -132.52415006 40.31226024 -130.55838013 39.56669617 C-119.3084838 35.29815239 -108.07933165 30.97712689 -96.85760498 26.63500977 C-92.11053327 24.79827719 -87.35962549 22.97205535 -82.60516357 21.15454102 C-72.21366212 17.17479039 -61.85110122 13.15964651 -51.590271 8.85209656 C-47.32144938 7.0640376 -43.03712397 5.31507864 -38.75091553 3.56918335 C-36.77043754 2.74920671 -34.79792838 1.90965118 -32.8348999 1.04873657 C-20.16875241 -4.50195295 -12.58203192 -6.1571873 0 0 Z " fill="#FCFCFC" transform="translate(264.73040771484375,31.931396484375)"/>
<path d="M0 0 C3.95547023 2.7002897 6.23540538 6.3238112 8.87109375 10.27734375 C9.42796875 9.59027344 9.98484375 8.90320313 10.55859375 8.1953125 C16.32659206 1.38478746 20.01548128 -2.1431162 28.91015625 -3.0234375 C36.1637852 -3.32071737 42.66535061 -2.72889549 48.87109375 1.27734375 C54.11008927 6.29850162 56.61869373 12.01043525 57.04534912 19.22319031 C57.10232697 22.84574671 57.09570783 26.463047 57.06640625 30.0859375 C57.06267042 31.4211455 57.05982614 32.75635626 57.05783081 34.09156799 C57.05023916 37.58502941 57.03062981 41.0783213 57.00842285 44.57171631 C56.98786746 48.14479276 56.97880848 51.71789693 56.96875 55.29101562 C56.94737907 62.28653448 56.91223403 69.28191349 56.87109375 76.27734375 C50.27109375 76.27734375 43.67109375 76.27734375 36.87109375 76.27734375 C36.85651123 74.63741455 36.84192871 72.99748535 36.8269043 71.30786133 C36.76892752 65.22284146 36.69169367 59.13819186 36.60864258 53.0534668 C36.5753905 50.42006439 36.54735951 47.78659066 36.5246582 45.15307617 C36.49111846 41.36736664 36.43880055 37.58231086 36.3828125 33.796875 C36.37642258 32.61962357 36.37003265 31.44237213 36.3634491 30.22944641 C36.34365494 29.12868271 36.32386078 28.02791901 36.3034668 26.89379883 C36.29236374 25.92783279 36.28126068 24.96186676 36.26982117 23.96662903 C35.79768458 20.78222306 34.74688066 18.87328238 32.87109375 16.27734375 C29.15360902 14.41860139 24.92823562 14.84109194 20.87109375 15.27734375 C16.77463836 17.13936893 15.27832736 18.5611743 13.05859375 22.46484375 C10.76492697 29.82872129 10.70533568 37.45964486 10.5546875 45.125 C10.52351585 46.47095497 10.52351585 46.47095497 10.49171448 47.84410095 C10.42697149 50.67594663 10.36768857 53.50787516 10.30859375 56.33984375 C10.26533673 58.27409669 10.22172031 60.20834163 10.17773438 62.14257812 C10.07070061 66.85408351 9.97107074 71.56566235 9.87109375 76.27734375 C3.60109375 76.27734375 -2.66890625 76.27734375 -9.12890625 76.27734375 C-9.15863525 74.13721802 -9.15863525 74.13721802 -9.18896484 71.95385742 C-9.2655202 66.61791495 -9.35415762 61.28222757 -9.44628906 55.9465332 C-9.48437376 53.64515246 -9.51926087 51.34371634 -9.55078125 49.04223633 C-9.59688032 45.7180615 -9.6547975 42.39426126 -9.71484375 39.0703125 C-9.72639496 38.05527145 -9.73794617 37.04023041 -9.74984741 35.99443054 C-9.88657661 29.24948152 -10.72776728 22.87535459 -12.12890625 16.27734375 C-17.78933045 14.79890791 -22.92927493 14.5033994 -28.50390625 16.46484375 C-32.58825222 19.28498739 -34.15797451 22.51945732 -35.12890625 27.27734375 C-35.24030121 28.92571843 -35.30442682 30.57762664 -35.33422852 32.22949219 C-35.35417374 33.21020691 -35.37411896 34.19092163 -35.39466858 35.20135498 C-35.41973732 36.77811005 -35.41973732 36.77811005 -35.4453125 38.38671875 C-35.4660936 39.46866516 -35.48687469 40.55061157 -35.50828552 41.66534424 C-35.57363556 45.11927988 -35.63259854 48.57329112 -35.69140625 52.02734375 C-35.73460529 54.36979946 -35.77822003 56.71224755 -35.82226562 59.0546875 C-35.92930212 64.79549557 -36.03061073 70.53637963 -36.12890625 76.27734375 C-42.72890625 76.27734375 -49.32890625 76.27734375 -56.12890625 76.27734375 C-56.12890625 50.53734375 -56.12890625 24.79734375 -56.12890625 -1.72265625 C-49.85890625 -1.72265625 -43.58890625 -1.72265625 -37.12890625 -1.72265625 C-37.12890625 1.90734375 -37.12890625 5.53734375 -37.12890625 9.27734375 C-36.46890625 9.27734375 -35.80890625 9.27734375 -35.12890625 9.27734375 C-34.90203125 8.72046875 -34.67515625 8.16359375 -34.44140625 7.58984375 C-31.63948798 2.65313061 -27.99127586 -0.42919725 -22.5625 -2.21484375 C-14.83856624 -3.82657953 -7.08090539 -3.65088883 0 0 Z " fill="#F9F9F9" transform="translate(301.12890625,254.72265625)"/>
<path d="M0 0 C1.084021 0.00523682 2.16804199 0.01047363 3.28491211 0.01586914 C4.45473633 0.0190918 5.62456055 0.02231445 6.82983398 0.02563477 C8.0615332 0.03401367 9.29323242 0.04239258 10.56225586 0.05102539 C12.41560547 0.05779297 12.41560547 0.05779297 14.30639648 0.06469727 C17.37089703 0.07652931 20.43530307 0.09301366 23.49975586 0.11352539 C26.78612009 8.02618624 29.62001139 16.06966067 32.38647461 24.17602539 C32.85220949 25.53442233 33.31818276 26.89273756 33.78437805 28.25097656 C35.00786475 31.81743948 36.22838776 35.38490921 37.44818115 38.95263672 C38.89792969 43.19137628 40.35088362 47.42901781 41.80371284 51.66670227 C42.99097298 55.12991936 44.17740895 58.59341291 45.36178589 62.05761719 C47.62337298 68.66880505 49.89971015 75.27418759 52.21313477 81.86743164 C52.63472366 83.07230225 53.05631256 84.27717285 53.49067688 85.51855469 C54.28160117 87.77532719 55.07631063 90.03077791 55.87541199 92.28466797 C56.22300064 93.27748779 56.57058929 94.27030762 56.92871094 95.29321289 C57.23376053 96.15672363 57.53881012 97.02023437 57.85310364 97.90991211 C58.49975586 100.11352539 58.49975586 100.11352539 58.49975586 103.11352539 C51.56975586 103.11352539 44.63975586 103.11352539 37.49975586 103.11352539 C34.50107369 95.83101155 32.00158535 88.61901387 29.49975586 81.11352539 C10.19475586 80.61852539 10.19475586 80.61852539 -9.50024414 80.11352539 C-10.49024414 83.74352539 -11.48024414 87.37352539 -12.50024414 91.11352539 C-13.77088356 95.13792516 -15.1373221 99.11875388 -16.50024414 103.11352539 C-23.76024414 103.11352539 -31.02024414 103.11352539 -38.50024414 103.11352539 C-30.95348157 80.19082246 -23.10650116 57.38250412 -15.12101746 34.60914612 C-13.25713497 29.28932731 -11.40878738 23.96447906 -9.57836914 18.63305664 C-9.1563623 17.40514404 -8.73435547 16.17723145 -8.29956055 14.91210938 C-7.53906748 12.69497958 -6.78078568 10.47708956 -6.02514648 8.25830078 C-5.69981934 7.31075928 -5.37449219 6.36321777 -5.03930664 5.38696289 C-4.76296387 4.57662598 -4.48662109 3.76628906 -4.2019043 2.93139648 C-3.14863491 0.20257121 -3.02918793 0.13754247 0 0 Z M9.49975586 22.11352539 C6.78013788 29.14296987 4.38361005 36.27580517 2.00097656 43.42456055 C1.30656409 45.50558255 0.6073431 47.58495099 -0.09204102 49.66430664 C-0.53439112 50.98842761 -0.97645885 52.31264295 -1.41821289 53.63696289 C-1.81806396 54.83240723 -2.21791504 56.02785156 -2.62988281 57.25952148 C-3.59747707 59.93506759 -3.59747707 59.93506759 -3.50024414 62.11352539 C5.40975586 62.11352539 14.31975586 62.11352539 23.49975586 62.11352539 C21.78906785 54.41542933 19.67755851 47.12093675 17.1862793 39.67211914 C16.49287652 37.59289714 15.8124905 35.50968921 15.13256836 33.42602539 C14.69324248 32.10285006 14.25316621 30.77992359 13.81225586 29.45727539 C13.41651367 28.26295898 13.02077148 27.06864258 12.61303711 25.83813477 C11.79755032 22.98791441 11.79755032 22.98791441 9.49975586 22.11352539 Z " fill="#F8F8F8" transform="translate(39.500244140625,227.886474609375)"/>
<path d="M0 0 C1.18613892 0.00785522 1.18613892 0.00785522 2.39624023 0.01586914 C3.67724609 0.02070313 3.67724609 0.02070313 4.98413086 0.02563477 C5.88196289 0.03401367 6.77979492 0.04239258 7.70483398 0.05102539 C8.6065332 0.05553711 9.50823242 0.06004883 10.43725586 0.06469727 C12.67234712 0.07652315 14.90730835 0.09300319 17.14233398 0.11352539 C17.15113335 1.08619102 17.15113335 1.08619102 17.16011047 2.07850647 C17.22417512 8.84363713 17.30862886 15.60829784 17.40478516 22.37304688 C17.43798528 24.8957702 17.46603241 27.41856693 17.48876953 29.94140625 C17.52240495 33.57331545 17.57472765 37.20455496 17.63061523 40.83618164 C17.63700516 41.95936295 17.64339508 43.08254425 17.64997864 44.23976135 C17.76236545 50.26144742 18.1340209 54.83516637 21.14233398 60.11352539 C24.9613339 62.553442 28.70288338 62.56499494 33.14233398 62.11352539 C37.31378196 60.69231383 40.35950806 59.12362335 43.07983398 55.61352539 C44.71628216 51.7630591 45.26955021 48.44604431 45.33178711 44.26904297 C45.34850464 43.31157669 45.36522217 42.35411041 45.38244629 41.36763 C45.39602173 40.34147079 45.40959717 39.31531158 45.42358398 38.25805664 C45.44199341 37.20067795 45.46040283 36.14329926 45.47937012 35.05387878 C45.55808366 30.52837256 45.62602389 26.00272056 45.69458008 21.47705078 C45.74614437 18.17480741 45.80343577 14.87269847 45.86108398 11.57055664 C45.87465942 10.53832474 45.88823486 9.50609283 45.90222168 8.44258118 C45.92729797 7.02056648 45.92729797 7.02056648 45.95288086 5.56982422 C45.97167297 4.3121801 45.97167297 4.3121801 45.99084473 3.02912903 C46.14233398 1.11352539 46.14233398 1.11352539 47.14233398 0.11352539 C53.41233398 0.11352539 59.68233398 0.11352539 66.14233398 0.11352539 C66.14233398 25.85352539 66.14233398 51.59352539 66.14233398 78.11352539 C59.87233398 78.11352539 53.60233398 78.11352539 47.14233398 78.11352539 C47.14233398 74.48352539 47.14233398 70.85352539 47.14233398 67.11352539 C46.48233398 67.11352539 45.82233398 67.11352539 45.14233398 67.11352539 C44.75948242 67.99137695 44.75948242 67.99137695 44.36889648 68.88696289 C41.92501337 73.32331122 37.75083457 76.96034656 33.11889648 79.00805664 C24.97314852 81.24572258 15.89623697 80.75409409 8.19311523 77.21899414 C2.2969679 73.59945033 -0.82012033 67.43461151 -2.40866089 60.81878662 C-2.88659621 57.93922062 -2.98473505 55.24787847 -2.98706055 52.3293457 C-2.99021271 51.19176819 -2.99336487 50.05419067 -2.99661255 48.88214111 C-2.99458832 47.66427917 -2.99256409 46.44641724 -2.99047852 45.19165039 C-2.99143524 43.93592224 -2.99239197 42.68019409 -2.99337769 41.38641357 C-2.99405744 38.73698456 -2.99272083 36.08764817 -2.98803711 33.43823242 C-2.98231684 30.03620362 -2.98563759 26.63425331 -2.99160957 23.23222733 C-2.99607955 19.98953214 -2.99295664 16.7468466 -2.99047852 13.50415039 C-2.99250275 12.27819153 -2.99452698 11.05223267 -2.99661255 9.78912354 C-2.99346039 8.66415466 -2.99030823 7.53918579 -2.98706055 6.38012695 C-2.98626495 5.38482971 -2.98546936 4.38953247 -2.98464966 3.36407471 C-2.82829804 0.59303257 -2.77405564 0.16952765 0 0 Z " fill="#F7F7F8" transform="translate(156.857666015625,252.886474609375)"/>
<path d="M0 0 C6.36517659 4.69929053 9.08102298 10.14363826 10.52464294 17.77249146 C10.97333161 20.81893091 11.12061152 23.65460122 11.11352539 26.72998047 C11.11341209 28.38101273 11.11341209 28.38101273 11.11329651 30.06539917 C11.10813522 31.23748932 11.10297394 32.40957947 11.09765625 33.6171875 C11.0962413 34.82948029 11.09482635 36.04177307 11.09336853 37.290802 C11.08778345 41.15222673 11.07523361 45.01359288 11.0625 48.875 C11.05748308 51.49739499 11.0529205 54.1197909 11.04882812 56.7421875 C11.03781889 63.1614808 11.02056444 69.58073048 11 76 C4.4 76 -2.2 76 -9 76 C-9.029729 73.73757446 -9.029729 73.73757446 -9.06005859 71.42944336 C-9.13629985 65.81778659 -9.22498896 60.20638285 -9.31738281 54.5949707 C-9.35559604 52.16924038 -9.39046211 49.74345487 -9.421875 47.31762695 C-9.46769153 43.82483233 -9.52565941 40.33241511 -9.5859375 36.83984375 C-9.59748871 35.76041 -9.60903992 34.68097626 -9.62094116 33.5688324 C-9.53685707 24.02677355 -9.53685707 24.02677355 -14 16.0625 C-19.53902233 14.10076293 -24.82636081 14.2754536 -30.375 16.125 C-34.39530086 18.99664347 -36.45092353 22.35277059 -38 27 C-38.11471012 28.61024513 -38.1762774 30.22455855 -38.20532227 31.83862305 C-38.22526749 32.8194133 -38.24521271 33.80020355 -38.26576233 34.81071472 C-38.29083107 36.39521172 -38.29083107 36.39521172 -38.31640625 38.01171875 C-38.33718735 39.09508011 -38.35796844 40.17844147 -38.37937927 41.29463196 C-38.44481797 44.75885616 -38.50373353 48.2231568 -38.5625 51.6875 C-38.60569061 54.03451315 -38.64930507 56.38151853 -38.69335938 58.72851562 C-38.80049361 64.48559854 -38.90177727 70.24275842 -39 76 C-45.6 76 -52.2 76 -59 76 C-59 50.26 -59 24.52 -59 -2 C-53.06 -2 -47.12 -2 -41 -2 C-39.33657163 -0.33657163 -39.63951903 1.7825709 -39.4375 4.0625 C-39.31181641 5.44115234 -39.31181641 5.44115234 -39.18359375 6.84765625 C-39.12300781 7.55792969 -39.06242187 8.26820313 -39 9 C-38.47212891 8.31164062 -38.47212891 8.31164062 -37.93359375 7.609375 C-28.88307256 -3.63879233 -13.08053484 -7.20451333 0 0 Z " fill="#F8F8F8" transform="translate(438,255)"/>
<path d="M0 0 C1.18613892 0.00785522 1.18613892 0.00785522 2.39624023 0.01586914 C3.67724609 0.02070313 3.67724609 0.02070313 4.98413086 0.02563477 C5.88196289 0.03401367 6.77979492 0.04239258 7.70483398 0.05102539 C8.6065332 0.05553711 9.50823242 0.06004883 10.43725586 0.06469727 C12.67234712 0.07652315 14.90730835 0.09300319 17.14233398 0.11352539 C17.15264145 1.22186234 17.16294891 2.33019928 17.17356873 3.47212219 C17.27122383 13.90499001 17.37395043 24.33779712 17.48167324 34.77056599 C17.53689388 40.13445786 17.59031258 45.4983552 17.63964844 50.86230469 C17.68730456 56.0364837 17.73964794 61.21059581 17.79527473 66.38469505 C17.81569261 68.36107917 17.83440663 70.33748163 17.851408 72.31389809 C17.87546448 75.07700878 17.90551748 77.83999284 17.93701172 80.60302734 C17.94564491 81.8351722 17.94564491 81.8351722 17.95445251 83.09220886 C17.99678664 86.34867011 18.10544387 89.00285506 19.14233398 92.11352539 C20.07045898 92.25790039 20.99858398 92.40227539 21.95483398 92.55102539 C25.14233398 93.11352539 25.14233398 93.11352539 28.14233398 94.11352539 C29.17823598 99.16354761 29.24485071 103.98768928 29.14233398 109.11352539 C22.01433028 111.96472687 15.45586107 111.91883646 8.32202148 109.27758789 C4.28793688 107.12318429 1.36413639 104.08938233 -0.85766602 100.11352539 C-2.68125182 94.03341041 -3.14450715 88.15832248 -3.10058594 81.84594727 C-3.10248428 80.96841797 -3.10438263 80.09088867 -3.1063385 79.18676758 C-3.11001028 76.31850941 -3.09939929 73.45051059 -3.08813477 70.58227539 C-3.0869415 68.57971222 -3.08649011 66.57714847 -3.08674622 64.57458496 C-3.08518794 60.39547175 -3.07694392 56.216445 -3.06347656 52.03735352 C-3.04639943 46.66920426 -3.04266507 41.30114902 -3.04342175 35.93297577 C-3.04315064 31.8067535 -3.03768057 27.68055195 -3.0304203 23.55433655 C-3.0272308 21.57349301 -3.02526557 19.59264712 -3.0245266 17.61180115 C-3.02237099 14.85647519 -3.0136464 12.10125145 -3.00292969 9.34594727 C-3.00338287 8.52211548 -3.00383606 7.69828369 -3.00430298 6.8494873 C-2.96616155 0.18126759 -2.96616155 0.18126759 0 0 Z " fill="#F6F6F7" transform="translate(112.857666015625,221.886474609375)"/>
<path d="M0 0 C6.27 0 12.54 0 19 0 C19 25.74 19 51.48 19 78 C12.4 78 5.8 78 -1 78 C-1.02255161 67.97771835 -1.04091543 57.95545343 -1.05181217 47.9331522 C-1.05704085 43.27988814 -1.06413823 38.62664226 -1.07543945 33.97338867 C-1.08626886 29.48655454 -1.09227695 24.99973796 -1.09487724 20.51289177 C-1.0967314 18.79719707 -1.10035182 17.08150338 -1.10573006 15.36581612 C-1.11294121 12.97115087 -1.11399091 10.57655904 -1.11352539 8.18188477 C-1.11712067 7.46547318 -1.12071594 6.74906158 -1.12442017 6.01094055 C-1.11405216 1.11405216 -1.11405216 1.11405216 0 0 Z " fill="#F7F7F8" transform="translate(470,253)"/>
<path d="M0 0 C3.63 0 7.26 0 11 0 C11.33 1.65 11.66 3.3 12 5 C12.78375 4.360625 13.5675 3.72125 14.375 3.0625 C19.53648441 -0.99295203 24.6103182 -0.59380551 31 0 C37.01211128 2.79133738 39.86916208 7.11636331 42.25 13.1875 C43.87967301 21.47167114 43.95414985 30.33883467 40 38 C36.27704242 42.25813273 32.52777424 45.62961406 26.73046875 46.23828125 C20.74751465 46.41289896 17.59903147 45.89148817 13 42 C12.67 41.67 12.34 41.34 12 41 C11.67 48.26 11.34 55.52 11 63 C7.37 63 3.74 63 0 63 C0 42.21 0 21.42 0 0 Z M12 15 C10.12956085 19.17251809 10.33190244 24.63631691 11.56640625 29.00390625 C12.93875535 32.4455566 13.86652564 33.9110171 17 36 C22.94761642 36.70371253 22.94761642 36.70371253 27.9375 33.75 C31.5170116 28.97731787 31.58434429 23.81321818 31 18 C29.65784949 14.64462373 28.54210798 12.54210798 26 10 C19.75054011 8.83359786 15.86598875 9.68426547 12 15 Z " fill="#F6A614" transform="translate(185,386)"/>
<path d="M0 0 C0.928125 0.8971875 0.928125 0.8971875 1.875 1.8125 C0.6258258 5.27175163 -0.80027795 7.95943203 -3.125 10.8125 C-7.83147392 8.98220459 -7.83147392 8.98220459 -9.94921875 7.7578125 C-12.64966032 6.58455064 -14.75131725 6.54652077 -17.6875 6.5625 C-18.63753906 6.55734375 -19.58757812 6.5521875 -20.56640625 6.546875 C-23.36599273 6.63673925 -23.36599273 6.63673925 -26.125 8.8125 C-26.3752157 11.89615871 -26.3752157 11.89615871 -26.125 14.8125 C-21.8435439 16.85592223 -17.82573542 18.15874056 -13.1875 19.1875 C-6.67952448 20.7533287 -1.48051229 22.92509783 2.8125 28.1875 C5.39073677 34.55726143 5.27481055 40.44100298 2.875 46.8125 C-0.48675645 51.26188354 -4.78287798 54.24670561 -10.125 55.8125 C-18.8509089 56.85330118 -27.39440979 56.26111493 -35.125 51.8125 C-37.54960826 49.61387465 -39.21137974 47.50191226 -41.125 44.8125 C-39.145 42.1725 -37.165 39.5325 -35.125 36.8125 C-31.125 38.8125 -31.125 38.8125 -29 40.8125 C-24.96736795 43.61780925 -20.99641585 44.46231835 -16.125 44.8125 C-12.25530232 44.01739272 -12.25530232 44.01739272 -9.125 41.8125 C-8.62468794 38.39678147 -8.62468794 38.39678147 -9.125 34.8125 C-12.90366605 31.86399543 -16.88715062 30.99480625 -21.5 29.9375 C-28.70649175 28.14372157 -33.64557084 26.33168978 -38.0625 20.0625 C-39.83867411 14.62949685 -39.87210807 9.9708122 -38 4.5625 C-34.33686659 -0.81009568 -30.57048298 -3.65971493 -24.25390625 -4.90625 C-15.57735933 -6.05250941 -7.31168038 -5.11817627 0 0 Z " fill="#F3A314" transform="translate(171.125,376.1875)"/>
<path d="M0 0 C4.46224774 2.64534096 6.49461232 6.40901969 8.02734375 11.33203125 C8.50829539 13.80091633 8.56992801 16.11061702 8.5625 18.625 C8.56636719 19.94564453 8.56636719 19.94564453 8.5703125 21.29296875 C8.4375 23.4375 8.4375 23.4375 7.4375 24.4375 C5.3666528 24.5959265 3.29071971 24.68874422 1.21484375 24.75390625 C-0.04521484 24.79580078 -1.30527344 24.83769531 -2.60351562 24.88085938 C-3.94400736 24.92067596 -5.2845022 24.96038814 -6.625 25 C-7.96941523 25.04318042 -9.3138166 25.08679456 -10.65820312 25.13085938 C-13.9595234 25.23735358 -17.26092236 25.3393646 -20.5625 25.4375 C-19.9025 27.7475 -19.2425 30.0575 -18.5625 32.4375 C-14.01126796 33.95457735 -8.78600629 34.21873194 -4.25 32.625 C-2.22740307 31.27374424 -2.22740307 31.27374424 0.4375 28.4375 C2.7475 30.0875 5.0575 31.7375 7.4375 33.4375 C6.08102598 37.87686951 4.26941061 39.8531882 0.4375 42.4375 C-5.53234603 45.27545737 -12.26915462 45.44769891 -18.6875 43.9375 C-24.23851732 41.7567432 -28.48015692 38.37825312 -31.375 33.1875 C-33.86940997 25.31041587 -34.07805131 18.37636356 -31.5625 10.4375 C-25.34049131 -1.14830928 -12.16797199 -5.32920578 0 0 Z M-18 9.125 C-19.94706424 11.68554988 -19.94706424 11.68554988 -20.5625 16.4375 C-14.6225 16.4375 -8.6825 16.4375 -2.5625 16.4375 C-3.71801726 9.53274241 -3.71801726 9.53274241 -7.5625 7.4375 C-13.15499809 6.80741516 -13.15499809 6.80741516 -18 9.125 Z " fill="#F1A214" transform="translate(360.5625,387.5625)"/>
<path d="M0 0 C1.20269531 -0.02578125 2.40539062 -0.0515625 3.64453125 -0.078125 C7.52596235 0.28134602 9.88280888 1.21969856 13.1875 3.25 C16.71016614 7.9873786 17.31596492 12.09859456 17.28515625 17.890625 C17.28193359 18.96054687 17.27871094 20.03046875 17.27539062 21.1328125 C17.26282227 22.79957031 17.26282227 22.79957031 17.25 24.5 C17.24548828 25.62664062 17.24097656 26.75328125 17.23632812 27.9140625 C17.22455397 30.69276217 17.2081084 33.47135409 17.1875 36.25 C18.8375 36.25 20.4875 36.25 22.1875 36.25 C22.6825 40.21 22.6825 40.21 23.1875 44.25 C18.85393232 46.48244396 15.88421265 46.50804803 11.1875 45.25 C8.25 42.6875 8.25 42.6875 6.1875 40.25 C5.424375 41.054375 4.66125 41.85875 3.875 42.6875 C-0.08469487 46.46302302 -3.31464964 46.54112708 -8.52734375 46.46484375 C-12.90798745 46.05298836 -15.71877866 44.4166361 -18.6875 41.25 C-20.43472857 36.5907238 -20.5955353 32.15505133 -19.8125 27.25 C-15.37480346 20.98501665 -8.70971546 19.00322193 -1.4375 17.5625 C-0.19226563 17.31113281 1.05296875 17.05976563 2.3359375 16.80078125 C3.27695312 16.61902344 4.21796875 16.43726563 5.1875 16.25 C4.5275 14.27 3.8675 12.29 3.1875 10.25 C-2.19634301 9.80134642 -5.26040947 10.64307113 -9.91796875 13.375 C-11.8125 14.25 -11.8125 14.25 -15.8125 14.25 C-17.6875 12 -17.6875 12 -18.8125 9.25 C-18.4375 7.1875 -18.4375 7.1875 -16.8125 5.25 C-11.30432227 1.45218553 -6.63927947 0.08484702 0 0 Z M-1.875 25.5625 C-3.19177734 25.92794922 -3.19177734 25.92794922 -4.53515625 26.30078125 C-7.13907492 27.13904695 -7.13907492 27.13904695 -8.8125 30.25 C-8.65489972 33.36304814 -8.65489972 33.36304814 -7.8125 36.25 C-4.72076248 37.79586876 -2.21820448 37.54359521 1.1875 37.25 C3.74735074 35.94138543 3.74735074 35.94138543 5.1875 33.25 C5.795693 30.25542259 6.05715117 27.30016265 6.1875 24.25 C3.17745503 24.25 1.00427457 24.73560966 -1.875 25.5625 Z " fill="#F1A214" transform="translate(254.8125,385.75)"/>
<path d="M0 0 C3.60664412 2.18242954 5.2923487 4.266721 7.75 7.6640625 C7.75 8.3240625 7.75 8.9840625 7.75 9.6640625 C6.2890625 10.953125 6.2890625 10.953125 4.375 12.2890625 C3.74851562 12.73507812 3.12203125 13.18109375 2.4765625 13.640625 C0.75 14.6640625 0.75 14.6640625 -1.25 14.6640625 C-1.745 13.8390625 -2.24 13.0140625 -2.75 12.1640625 C-5.64443792 9.26962458 -6.37485382 9.25576896 -10.3125 9.1640625 C-13.19765558 9.19877114 -14.69302737 9.23543032 -16.99609375 11.0078125 C-20.35564098 15.44534529 -19.68679053 21.38492175 -19.25 26.6640625 C-17.73130027 31.03342739 -17.73130027 31.03342739 -14.25 33.6640625 C-8.59258799 34.28965973 -8.59258799 34.28965973 -3.8125 31.7890625 C-2.22582559 29.75700704 -2.22582559 29.75700704 -1.25 27.6640625 C2.70820859 28.22952087 5.4159053 29.47308598 8.75 31.6640625 C6.40464481 37.34809979 4.37616767 40.67142012 -1.25 43.6640625 C-7.34278281 45.6949901 -14.71251391 45.77762003 -20.625 43.1015625 C-25.61387279 40.16020625 -29.00708815 36.09339021 -31.625 30.9765625 C-33.43867628 21.36407823 -32.70691298 13.29755033 -27.5625 4.9140625 C-20.22011487 -2.22987979 -9.55136811 -3.92616333 0 0 Z " fill="#F2A314" transform="translate(314.25,387.3359375)"/>
<path d="M0 0 C2.9375 2.5 2.9375 2.5 5 5 C5.33 5.33 5.66 5.66 6 6 C6.44875996 10.17691967 6.39878299 13.92094013 4.9375 17.875 C2.22640744 20.84845636 -0.15753438 21.84726031 -4 23 C-10.08868732 23 -12.8130883 21.08722332 -17 17 C-18.61734652 13.76530695 -18.5784335 10.49659802 -18 7 C-16.26286302 3.69871894 -13.85887559 1.53389564 -10.6875 -0.4375 C-6.92414301 -1.22517937 -3.67879717 -1.18167424 0 0 Z " fill="#F5F5F6" transform="translate(485,222)"/>
</svg>
